<?xml version="1.0" encoding="UTF-8" standalone="no"?>
<!-- Generator: Adobe Illustrator 13.0.0, SVG Export Plug-In . SVG Version: 6.00 Build 14948)  -->

<svg
   xmlns:dc="http://purl.org/dc/elements/1.1/"
   xmlns:cc="http://creativecommons.org/ns#"
   xmlns:rdf="http://www.w3.org/1999/02/22-rdf-syntax-ns#"
   xmlns:svg="http://www.w3.org/2000/svg"
   xmlns="http://www.w3.org/2000/svg"
   xmlns:sodipodi="http://sodipodi.sourceforge.net/DTD/sodipodi-0.dtd"
   xmlns:inkscape="http://www.inkscape.org/namespaces/inkscape"
   version="1.1"
   id="Layer_1"
   x="0px"
   y="0px"
   width="1000"
   height="501.358"
   viewBox="0 0 1000 501.35801"
   xml:space="preserve"
   inkscape:version="0.92.2 (5c3e80d, 2017-08-06)"
   sodipodi:docname="Java (Wordmark).svg"><metadata
     id="metadata33"><rdf:RDF><cc:Work
         rdf:about=""><dc:format>image/svg+xml</dc:format><dc:type
           rdf:resource="http://purl.org/dc/dcmitype/StillImage" /><dc:title></dc:title></cc:Work></rdf:RDF></metadata><defs
     id="defs31" /><sodipodi:namedview
     pagecolor="#ffffff"
     bordercolor="#666666"
     borderopacity="1"
     objecttolerance="10"
     gridtolerance="10"
     guidetolerance="10"
     inkscape:pageopacity="0"
     inkscape:pageshadow="2"
     inkscape:window-width="1366"
     inkscape:window-height="705"
     id="namedview29"
     showgrid="false"
     inkscape:zoom="0.30341309"
     inkscape:cx="1032.9578"
     inkscape:cy="625.03476"
     inkscape:window-x="-8"
     inkscape:window-y="-8"
     inkscape:window-maximized="1"
     inkscape:current-layer="Layer_1" /><path
     style="fill:#ffffff;fill-opacity:1;stroke-width:3.43845844"
     d="m 957.87545,108.13574 h -7.00758 v -3.9198 h 18.86338 v 3.9198 h -6.95944 v 19.5579 h -4.89636 z m 37.62361,1.0212 h -0.11003 l -6.94225,18.5402 h -3.17714 l -6.89754,-18.5402 h -0.086 v 18.5402 h -4.61441 v -23.4778 h 6.79096 l 6.39553,16.6249 6.3749,-16.6249 H 1000 v 23.4778 h -4.50438 v -18.5402 z"
     id="path3"
     inkscape:connector-curvature="0" /><path
     style="fill:#ffffff;fill-opacity:1;stroke-width:3.43845844"
     d="m 339.93288,328.55124 c -21.6726,18.7981 -44.56242,29.3507 -65.10377,29.3507 -29.31974,0 -45.16071,-17.5809 -45.16071,-45.7797 0,-30.5025 16.97223,-52.8044 85.06402,-52.8044 h 25.19702 v 69.2334 m 59.80511,67.4729 v -208.8589 c 0,-53.3545 -30.43036,-88.560897 -103.80018,-88.560897 -42.83288,0 -80.35334,10.576697 -110.84903,24.065797 l 8.80246,36.9703 c 24.01075,-8.8128 55.09098,-17.017 85.59698,-17.017 42.26553,0 60.4481,17.017 60.4481,52.1993 v 26.397 h -21.09494 c -102.68956,0 -149.01248,39.8621 -149.01248,99.6947 0,51.6353 30.52664,80.986 88.00391,80.986 36.94624,0 64.52611,-15.253 90.30767,-37.5755 l 4.67975,31.7026 h 46.91776 z"
     id="path21"
     inkscape:connector-curvature="0" /><path
     style="fill:#ffffff;fill-opacity:1;stroke-width:3.43845844"
     d="M 599.31643,396.02414 H 524.72939 L 434.965,103.89264 h 65.13472 l 55.69958,179.4876 12.38189,53.9803 c 28.17817,-78.0461 48.10748,-157.2269 58.07557,-233.4679 h 63.36047 c -16.97567,96.1978 -47.52293,201.786 -90.3008,292.1315"
     id="path23"
     inkscape:connector-curvature="0" /><path
     style="fill:#ffffff;fill-opacity:1;stroke-width:3.43845844"
     d="m 885.44088,328.55124 c -21.71387,18.7981 -44.64495,29.3507 -65.1863,29.3507 -29.26816,0 -45.15039,-17.5809 -45.15039,-45.7797 0,-30.5025 17.01349,-52.8044 85.0984,-52.8044 h 25.23829 v 69.2334 m 59.79479,67.4729 v -208.8589 c 0,-53.3545 -30.506,-88.560897 -103.78987,-88.560897 -42.86382,0 -80.39803,10.576697 -110.87997,24.065797 l 8.7887,36.9703 c 24.02107,-8.8128 55.15975,-17.017 85.64169,-17.017 42.23458,0 60.44466,17.017 60.44466,52.1993 v 26.397 h -21.12933 c -102.72051,0 -149.02279,39.8621 -149.02279,99.6947 0,51.6353 30.50257,80.986 87.96952,80.986 36.96687,0 64.53643,-15.253 90.36269,-37.5755 l 4.69694,31.7026 h 46.91776 z"
     id="path25"
     inkscape:connector-curvature="0" /><path
     style="fill:#ffffff;fill-opacity:1;stroke-width:3.43845844"
     d="m 104.25406,445.63414 c -17.047876,24.891 -44.583052,44.5831 -74.728017,55.7237 L 0,466.61224 c 22.944833,-11.7733 42.623131,-30.788 51.765992,-48.4995 7.908455,-15.7516 11.181867,-36.0522 11.181867,-84.5998 V -3.5664062e-4 H 126.48369 V 328.94324 c -0.003,64.9043 -5.19207,91.1226 -22.22963,116.6909"
     id="path27"
     inkscape:connector-curvature="0" /></svg>